<?xml version="1.0" standalone="yes"?>

<svg version="1.1" viewBox="0.0 0.0 960.0 720.0" fill="none" stroke="none" stroke-linecap="square" stroke-miterlimit="10" xmlns="http://www.w3.org/2000/svg" xmlns:xlink="http://www.w3.org/1999/xlink"><clipPath id="p.0"><path d="m0 0l960.0 0l0 720.0l-960.0 0l0 -720.0z" clip-rule="nonzero"></path></clipPath><g clip-path="url(#p.0)"><path fill="#000000" fill-opacity="0.0" d="m0 0l960.0 0l0 720.0l-960.0 0z" fill-rule="nonzero"></path><path fill="#cfe2f3" d="m114.664246 36.19313l709.07135 0l0 663.3269l-709.07135 0z" fill-rule="nonzero"></path><path stroke="#000000" stroke-width="1.0" stroke-linejoin="round" stroke-linecap="butt" d="m114.664246 36.19313l709.07135 0l0 663.3269l-709.07135 0z" fill-rule="nonzero"></path><path fill="#62a8e5" d="m465.65134 332.03738l2.467865 -14.823395l-1.8495483 -17.909576l-5.5594482 -22.85611l-9.882263 -24.087341l-16.060028 -25.323975l-19.764526 -19.764542l-25.323975 -16.672958l-25.323975 -11.737198l-30.878052 -6.7907104l-45.0885 0l-37.679504 11.731842l-34.587936 20.382843l-19.764526 12.350143l0 54.970764l8.0327 1.2366333l8.0273285 -3.7044983l11.1188965 -9.882263l17.291275 -9.882278l19.764526 -5.5594482l22.237793 -1.236618l28.410156 0.6183014l27.79187 3.086197l25.323975 6.177765l29.028473 11.737213l22.237793 16.060028l19.764526 18.527893l17.909576 21.614075z" fill-rule="nonzero"></path><path stroke="#000000" stroke-width="1.0" stroke-linejoin="round" stroke-linecap="butt" d="m465.65134 332.03738l2.467865 -14.823395l-1.8495483 -17.909576l-5.5594482 -22.85611l-9.882263 -24.087341l-16.060028 -25.323975l-19.764526 -19.764542l-25.323975 -16.672958l-25.323975 -11.737198l-30.878052 -6.7907104l-45.0885 0l-37.679504 11.731842l-34.587936 20.382843l-19.764526 12.350143l0 54.970764l8.0327 1.2366333l8.0273285 -3.7044983l11.1188965 -9.882263l17.291275 -9.882278l19.764526 -5.5594482l22.237793 -1.236618l28.410156 0.6183014l27.79187 3.086197l25.323975 6.177765l29.028473 11.737213l22.237793 16.060028l19.764526 18.527893l17.909576 21.614075z" fill-rule="nonzero"></path><path fill="#62a8e5" d="m411.7673 353.92334l-13.914581 -5.67572l-17.876862 -2.1450195l-23.519684 0.38293457l-25.673828 4.327881l-28.242249 10.081024l-23.636414 14.920258l-21.84674 21.024597l-17.032394 22.112946l-13.432266 28.621124l-9.942017 43.97931l3.134903 39.339478l12.254791 38.231445l7.6882477 22.001526l53.6185 12.121094l2.977417 -7.562439l-1.8433533 -8.6466675l-7.187439 -13.024414l-5.8264465 -19.044983l-1.0646057 -20.50415l3.697235 -21.96344l6.867523 -27.57492l9.138397 -26.427673l11.609711 -23.338806l17.849243 -25.726349l20.56839 -18.149475l22.430206 -15.192932l25.031433 -12.7030945z" fill-rule="nonzero"></path><path stroke="#000000" stroke-width="1.0" stroke-linejoin="round" stroke-linecap="butt" d="m411.7673 353.92334l-13.914581 -5.67572l-17.876862 -2.1450195l-23.519684 0.38293457l-25.673828 4.327881l-28.242249 10.081024l-23.636414 14.920258l-21.84674 21.024597l-17.032394 22.112946l-13.432266 28.621124l-9.942017 43.97931l3.134903 39.339478l12.254791 38.231445l7.6882477 22.001526l53.6185 12.121094l2.977417 -7.562439l-1.8433533 -8.6466675l-7.187439 -13.024414l-5.8264465 -19.044983l-1.0646057 -20.50415l3.697235 -21.96344l6.867523 -27.57492l9.138397 -26.427673l11.609711 -23.338806l17.849243 -25.726349l20.56839 -18.149475l22.430206 -15.192932l25.031433 -12.7030945z" fill-rule="nonzero"></path><path fill="#62a8e5" d="m435.7659 422.27368l-9.860199 11.341064l-7.7958984 16.230408l-7.2228394 22.387238l-4.1832275 25.698639l0.43432617 29.98529l6.5005493 27.186096l12.85611 27.460754l15.439026 23.254456l22.760712 21.945557l38.424408 23.594788l38.249725 9.719849l40.142212 0.7295532l23.306152 -0.18200684l28.766174 -46.84607l-6.198303 -5.2573853l-8.77948 -1.0437012l-14.646912 2.6031494l-19.906982 -0.62683105l-19.752625 -5.6050415l-19.598145 -10.583191l-23.887573 -15.393982l-22.069244 -17.173523l-18.348267 -18.516724l-18.595978 -25.193054l-10.5468445 -25.323364l-7.1476746 -26.132263l-3.9519043 -27.791626z" fill-rule="nonzero"></path><path stroke="#000000" stroke-width="1.0" stroke-linejoin="round" stroke-linecap="butt" d="m435.7659 422.27368l-9.860199 11.341064l-7.7958984 16.230408l-7.2228394 22.387238l-4.1832275 25.698639l0.43432617 29.98529l6.5005493 27.186096l12.85611 27.460754l15.439026 23.254456l22.760712 21.945557l38.424408 23.594788l38.249725 9.719849l40.142212 0.7295532l23.306152 -0.18200684l28.766174 -46.84607l-6.198303 -5.2573853l-8.77948 -1.0437012l-14.646912 2.6031494l-19.906982 -0.62683105l-19.752625 -5.6050415l-19.598145 -10.583191l-23.887573 -15.393982l-22.069244 -17.173523l-18.348267 -18.516724l-18.595978 -25.193054l-10.5468445 -25.323364l-7.1476746 -26.132263l-3.9519043 -27.791626z" fill-rule="nonzero"></path><path fill="#62a8e5" d="m460.09836 635.27075l-21.705505 12.6727295l-23.21634 6.032593l-32.00177 1.0860596l-26.248749 -0.61828613l-23.469025 -1.8603516l-25.017517 -7.102539l-16.678345 -7.715454l-20.070984 -10.188721l-11.737213 -11.1188965l-10.495209 -10.188721l-5.2529755 -6.484253l6.4842224 -0.3171997l13.898605 3.0969238l17.29129 3.7045288l9.575806 3.0808105l17.29663 0.93548584l16.984833 0.30651855l14.511536 -2.161438l18.527893 -3.0915527l19.764557 -6.7907104l13.592133 -7.7262573l10.495209 -6.7906494l9.532776 -6.645569l3.0162964 6.333679l7.5380554 15.076111l7.5380554 10.549011l12.661987 12.963074z" fill-rule="nonzero"></path><path stroke="#000000" stroke-width="1.0" stroke-linejoin="round" stroke-linecap="butt" d="m460.09836 635.27075l-21.705505 12.6727295l-23.21634 6.032593l-32.00177 1.0860596l-26.248749 -0.61828613l-23.469025 -1.8603516l-25.017517 -7.102539l-16.678345 -7.715454l-20.070984 -10.188721l-11.737213 -11.1188965l-10.495209 -10.188721l-5.2529755 -6.484253l6.4842224 -0.3171997l13.898605 3.0969238l17.29129 3.7045288l9.575806 3.0808105l17.29663 0.93548584l16.984833 0.30651855l14.511536 -2.161438l18.527893 -3.0915527l19.764557 -6.7907104l13.592133 -7.7262573l10.495209 -6.7906494l9.532776 -6.645569l3.0162964 6.333679l7.5380554 15.076111l7.5380554 10.549011l12.661987 12.963074z" fill-rule="nonzero"></path><path fill="#62a8e5" d="m721.5091 458.89502l6.720825 30.985565l-1.7366943 20.377472l-6.0110474 27.70044l-9.452148 24.4906l-9.6779175 21.463562l-15.135254 21.14093l-12.903931 13.086731l-16.366516 15.447144l-13.2265625 11.640381l-10.855408 8.441345l-18.995667 8.742432l9.3446045 -18.087036l7.7961426 -12.500671l9.32843 -15.022339l6.1293945 -7.973572l6.7315674 -15.963257l6.0164185 -15.877197l2.8765259 -14.387878l3.3496704 -18.479553l0.2902832 -20.898987l-2.6721802 -15.398682l-7.2853394 -24.205658l9.95752 -1.5054321l11.156555 -0.9086609l11.758728 -3.6130981l7.2369385 -3.3173828l8.134888 -4.2206726z" fill-rule="nonzero"></path><path stroke="#000000" stroke-width="1.0" stroke-linejoin="round" stroke-linecap="butt" d="m721.5091 458.89502l6.720825 30.985565l-1.7366943 20.377472l-6.0110474 27.70044l-9.452148 24.4906l-9.6779175 21.463562l-15.135254 21.14093l-12.903931 13.086731l-16.366516 15.447144l-13.2265625 11.640381l-10.855408 8.441345l-18.995667 8.742432l9.3446045 -18.087036l7.7961426 -12.500671l9.32843 -15.022339l6.1293945 -7.973572l6.7315674 -15.963257l6.0164185 -15.877197l2.8765259 -14.387878l3.3496704 -18.479553l0.2902832 -20.898987l-2.6721802 -15.398682l-7.2853394 -24.205658l9.95752 -1.5054321l11.156555 -0.9086609l11.758728 -3.6130981l7.2369385 -3.3173828l8.134888 -4.2206726z" fill-rule="nonzero"></path><path fill="#62a8e5" d="m333.77048 422.4221l-12.059784 17.183716l-10.258636 17.47409l-7.231598 19.904327l3.908844 2.2743225l13.280304 -1.8442078l30.883392 -5.2637024l25.635834 -10.18338l22.22702 -16.678345l18.936554 -23.479767l-0.5968323 -7.236969l-21.40976 5.123932l-25.022888 3.3173828l-27.738098 -0.9032593z" fill-rule="nonzero"></path><path stroke="#000000" stroke-width="1.0" stroke-linejoin="round" stroke-linecap="butt" d="m333.77048 422.4221l-12.059784 17.183716l-10.258636 17.47409l-7.231598 19.904327l3.908844 2.2743225l13.280304 -1.8442078l30.883392 -5.2637024l25.635834 -10.18338l22.22702 -16.678345l18.936554 -23.479767l-0.5968323 -7.236969l-21.40976 5.123932l-25.022888 3.3173828l-27.738098 -0.9032593z" fill-rule="nonzero"></path><path fill="#62a8e5" d="m511.5637 364.7639l14.897003 -1.9728394l16.586304 -7.003723l20.232239 -11.997314l20.14618 -16.49115l19.52295 -22.760406l13.123657 -24.677979l8.542175 -29.090836l3.8220825 -27.648102l-2.5317383 -31.513596l-13.179382 -43.118134l-22.23285 -32.60369l-29.602173 -27.11853l-17.587585 -15.290878l-52.568573 16.067963l1.1653748 8.043137l5.8890076 6.593704l12.70047 7.7444077l14.504639 13.647064l11.093689 17.275787l7.682678 20.904526l7.7130127 27.34938l5.172241 27.479446l1.4943848 26.023071l-2.7392578 31.190735l-8.858093 25.960327l-11.94104 24.316528l-15.434631 23.444733z" fill-rule="nonzero"></path><path stroke="#000000" stroke-width="1.0" stroke-linejoin="round" stroke-linecap="butt" d="m511.5637 364.7639l14.897003 -1.9728394l16.586304 -7.003723l20.232239 -11.997314l20.14618 -16.49115l19.52295 -22.760406l13.123657 -24.677979l8.542175 -29.090836l3.8220825 -27.648102l-2.5317383 -31.513596l-13.179382 -43.118134l-22.23285 -32.60369l-29.602173 -27.11853l-17.587585 -15.290878l-52.568573 16.067963l1.1653748 8.043137l5.8890076 6.593704l12.70047 7.7444077l14.504639 13.647064l11.093689 17.275787l7.682678 20.904526l7.7130127 27.34938l5.172241 27.479446l1.4943848 26.023071l-2.7392578 31.190735l-8.858093 25.960327l-11.94104 24.316528l-15.434631 23.444733z" fill-rule="nonzero"></path><path fill="#62a8e5" d="m551.1572 230.35634l-1.2097778 27.732712l-21.936646 14.038391l-18.533295 17.60315l-20.377472 21.619446l-5.8713074 4.9411316l-4.6292725 -2.473236l-0.9301758 -15.748199l0.61831665 -28.10907l8.032715 -17.603119l10.495209 -18.21605l14.516907 -14.205093l32.5878 -22.146378z" fill-rule="nonzero"></path><path stroke="#000000" stroke-width="1.0" stroke-linejoin="round" stroke-linecap="butt" d="m551.1572 230.35634l-1.2097778 27.732712l-21.936646 14.038391l-18.533295 17.60315l-20.377472 21.619446l-5.8713074 4.9411316l-4.6292725 -2.473236l-0.9301758 -15.748199l0.61831665 -28.10907l8.032715 -17.603119l10.495209 -18.21605l14.516907 -14.205093l32.5878 -22.146378z" fill-rule="nonzero"></path><path fill="#62a8e5" d="m512.5611 561.40436l-14.167419 -12.963074l-22.614136 -24.721802l12.661987 -31.356598l8.989716 -34.94815l4.3013306 -19.302124l5.220703 -0.5430603l9.575836 12.53833l15.199707 23.641083l3.1883545 19.087067l1.494751 20.974274l-4.097046 19.893555l-9.806946 34.93744z" fill-rule="nonzero"></path><path stroke="#000000" stroke-width="1.0" stroke-linejoin="round" stroke-linecap="butt" d="m512.5611 561.40436l-14.167419 -12.963074l-22.614136 -24.721802l12.661987 -31.356598l8.989716 -34.94815l4.3013306 -19.302124l5.220703 -0.5430603l9.575836 12.53833l15.199707 23.641083l3.1883545 19.087067l1.494751 20.974274l-4.097046 19.893555l-9.806946 34.93744z" fill-rule="nonzero"></path><path fill="#62a8e5" d="m358.19174 260.49872l19.345154 8.312286l1.5861206 17.990234l12.231842 22.458221l15.635284 25.264832l3.2582397 6.930481l-3.580841 3.849701l-15.457855 -3.1668396l-26.990723 -7.839142l-14.93631 -12.296387l-30.894165 -39.79251l-9.645721 -31.356583l21.710876 1.2097473z" fill-rule="nonzero"></path><path stroke="#000000" stroke-width="1.0" stroke-linejoin="round" stroke-linecap="butt" d="m358.19174 260.49872l19.345154 8.312286l1.5861206 17.990234l12.231842 22.458221l15.635284 25.264832l3.2582397 6.930481l-3.580841 3.849701l-15.457855 -3.1668396l-26.990723 -7.839142l-14.93631 -12.296387l-30.894165 -39.79251l-9.645721 -31.356583l21.710876 1.2097473z" fill-rule="nonzero"></path><path fill="#62a8e5" d="m634.3751 258.09183l4.822815 -28.94246l-2.4087524 -27.74347l-3.6238403 -13.26416l18.087036 4.812088l16.678345 2.4732513l20.382812 6.790695l18.221436 9.575806l14.823425 10.50058l18.237549 11.678055l6.6401367 3.919571l-0.9086304 21.404419l-3.6184692 20.50113l-2.4141235 13.269531l-31.216797 -19.818298l-23.474365 -9.263947l-21.925964 -4.322815z" fill-rule="nonzero"></path><path stroke="#000000" stroke-width="1.0" stroke-linejoin="round" stroke-linecap="butt" d="m634.3751 258.09183l4.822815 -28.94246l-2.4087524 -27.74347l-3.6238403 -13.26416l18.087036 4.812088l16.678345 2.4732513l20.382812 6.790695l18.221436 9.575806l14.823425 10.50058l18.237549 11.678055l6.6401367 3.919571l-0.9086304 21.404419l-3.6184692 20.50113l-2.4141235 13.269531l-31.216797 -19.818298l-23.474365 -9.263947l-21.925964 -4.322815z" fill-rule="nonzero"></path><path fill="#62a8e5" d="m673.8669 390.7556l-14.167419 11.156525l-25.630493 10.548981l-19.898926 5.129303l-12.963074 0.30108643l-17.613892 -19.769897l-16.366455 -12.043671l-22.232422 -10.807037l-8.9574585 -2.4678955l-8.645691 -0.93014526l7.4090576 -7.409027l11.737183 -3.0915527l8.64563 -2.1614075l12.968445 -0.92477417l25.635864 0.92477417l22.54425 4.634674l23.468994 8.339142l21.404419 11.032867z" fill-rule="nonzero"></path><path stroke="#000000" stroke-width="1.0" stroke-linejoin="round" stroke-linecap="butt" d="m673.8669 390.7556l-14.167419 11.156525l-25.630493 10.548981l-19.898926 5.129303l-12.963074 0.30108643l-17.613892 -19.769897l-16.366455 -12.043671l-22.232422 -10.807037l-8.9574585 -2.4678955l-8.645691 -0.93014526l7.4090576 -7.409027l11.737183 -3.0915527l8.64563 -2.1614075l12.968445 -0.92477417l25.635864 0.92477417l22.54425 4.634674l23.468994 8.339142l21.404419 11.032867z" fill-rule="nonzero"></path><path fill="#62a8e5" d="m759.3127 244.6401l-4.941162 2.1614075l-0.30645752 11.737213l-0.93011475 22.54425l-3.7045288 21.925934l-9.882263 28.716644l-17.29126 29.64679l-20.694702 22.237793l-23.157227 17.29126l-25.017456 13.280304l-26.555237 9.882263l-28.722046 2.7797241l-33.351257 -0.61831665l-27.485413 -1.2366333l-17.914978 -5.247589l-16.984802 -6.4842224l-5.247589 0.61831665l2.7797241 6.79068l9.882263 10.50058l18.834381 14.823395l19.15155 12.661987l18.216064 9.263977l25.635864 8.032684l26.867065 3.3926697l29.64679 -0.30648804l30.265076 -4.9411316l18.834412 -8.339172l24.087341 -17.29126l23.474426 -23.474426l22.23236 -26.867065l10.807068 -25.012115l6.1777954 -25.323975l0.30645752 -25.012146l-3.3927002 -24.705658l-8.339172 -28.410156l-8.64563 -21.313019z" fill-rule="nonzero"></path><path stroke="#000000" stroke-width="1.0" stroke-linejoin="round" stroke-linecap="butt" d="m759.3127 244.6401l-4.941162 2.1614075l-0.30645752 11.737213l-0.93011475 22.54425l-3.7045288 21.925934l-9.882263 28.716644l-17.29126 29.64679l-20.694702 22.237793l-23.157227 17.29126l-25.017456 13.280304l-26.555237 9.882263l-28.722046 2.7797241l-33.351257 -0.61831665l-27.485413 -1.2366333l-17.914978 -5.247589l-16.984802 -6.4842224l-5.247589 0.61831665l2.7797241 6.79068l9.882263 10.50058l18.834381 14.823395l19.15155 12.661987l18.216064 9.263977l25.635864 8.032684l26.867065 3.3926697l29.64679 -0.30648804l30.265076 -4.9411316l18.834412 -8.339172l24.087341 -17.29126l23.474426 -23.474426l22.23236 -26.867065l10.807068 -25.012115l6.1777954 -25.323975l0.30645752 -25.012146l-3.3927002 -24.705658l-8.339172 -28.410156l-8.64563 -21.313019z" fill-rule="nonzero"></path><path fill="#62a8e5" d="m536.3903 68.438545l-39.88394 8.817688l-19.759155 8.0327l-18.226807 9.570419l-18.221436 12.661987l-17.597748 15.441711l-13.274933 15.135246l-11.737213 19.759155l-6.032593 21.839905l-23.818512 -11.156525l-28.641357 -5.72612l-25.931519 -0.30108643l11.538269 -14.84491l10.812408 -15.748184l15.43634 -18.839745l19.764526 -19.452682l18.226807 -9.575798l29.32959 -10.194115l23.786255 -7.102539l23.469025 -2.4678802l24.630402 -2.177536l21.404388 0.30109024l16.576202 0.30109406z" fill-rule="nonzero"></path><path stroke="#000000" stroke-width="1.0" stroke-linejoin="round" stroke-linecap="butt" d="m536.3903 68.438545l-39.88394 8.817688l-19.759155 8.0327l-18.226807 9.570419l-18.221436 12.661987l-17.597748 15.441711l-13.274933 15.135246l-11.737213 19.759155l-6.032593 21.839905l-23.818512 -11.156525l-28.641357 -5.72612l-25.931519 -0.30108643l11.538269 -14.84491l10.812408 -15.748184l15.43634 -18.839745l19.764526 -19.452682l18.226807 -9.575798l29.32959 -10.194115l23.786255 -7.102539l23.469025 -2.4678802l24.630402 -2.177536l21.404388 0.30109024l16.576202 0.30109406z" fill-rule="nonzero"></path><path fill="#62a8e5" d="m186.33058 246.93678l0.6021881 23.210953l-1.8065491 13.570648l0.13978577 19.984985l7.962799 20.716187l10.807053 20.764587l11.532898 16.500916l16.404129 16.108398l14.50618 10.876953l-15.603012 27.334839l-11.15654 18.253693l-5.6185913 15.145996l-9.376846 -3.2474976l-12.721146 -14.242706l-14.624451 -19.484955l-14.194336 -23.829285l-4.95726 -19.979584l-2.9141388 -30.921051l-1.2366333 -24.791687l3.1883545 -23.383026l7.962799 -34.44812l9.645691 -25.329361l12.360901 -8.742416z" fill-rule="nonzero"></path><path stroke="#000000" stroke-width="1.0" stroke-linejoin="round" stroke-linecap="butt" d="m186.33058 246.93678l0.6021881 23.210953l-1.8065491 13.570648l0.13978577 19.984985l7.962799 20.716187l10.807053 20.764587l11.532898 16.500916l16.404129 16.108398l14.50618 10.876953l-15.603012 27.334839l-11.15654 18.253693l-5.6185913 15.145996l-9.376846 -3.2474976l-12.721146 -14.242706l-14.624451 -19.484955l-14.194336 -23.829285l-4.95726 -19.979584l-2.9141388 -30.921051l-1.2366333 -24.791687l3.1883545 -23.383026l7.962799 -34.44812l9.645691 -25.329361l12.360901 -8.742416z" fill-rule="nonzero"></path></g></svg>

